<svg width="1710" height="483" viewBox="0 0 1710 483" fill="none" xmlns="http://www.w3.org/2000/svg">
<rect x="1600.6" y="366.668" width="109.401" height="109.401" rx="30" fill="#D9D9D9"/>
<path d="M1700.14 420.876C1700.14 424.195 1699.79 427.431 1699.11 430.548C1694.68 450.94 1676.53 466.213 1654.81 466.213C1629.77 466.213 1609.47 445.915 1609.47 420.876C1609.47 395.837 1629.77 375.539 1654.81 375.539C1676.53 375.539 1694.68 390.812 1699.11 411.204C1699.79 414.32 1700.14 417.556 1700.14 420.876Z" fill="#070707"/>
<circle cx="1655.3" cy="421.369" r="12.3199" fill="#D9D9D9"/>
<path d="M57.1541 239.36V354.884H399.469H656.661H1496.94" stroke="#EDEFE3" stroke-width="3"/>
<path d="M57.7621 228.415V319.618H221.319V173.693C220.208 145.086 226.985 136.425 255.368 137.212H364.812V227.807M364.812 227.807H292.458M364.812 227.807V319.618H401.293M401.293 319.618V137.212H510.737C538.246 136.989 547.703 143.626 548.434 173.693V283.137C547.534 311.21 539.42 319.337 510.737 319.618H401.293ZM657.269 354.883V319.618M657.269 319.618L584.915 137.212M657.269 319.618L727.192 137.212H803.802M803.802 137.212H912.03M803.802 137.212C774.742 136.836 765.976 144.21 766.713 173.693V232.063M766.713 232.063H874.94M766.713 232.063V319.618H912.03H948.511V137.212L1092.61 319.618V137.212H1203.27M1278.06 137.212H1203.27M1203.27 137.212V319.618" stroke="#EDEFE3" stroke-width="3"/>
<path d="M1496.94 356.707V136.604M1496.94 136.604L1568.69 210.175L1641.65 136.604V320.226M1496.94 136.604H1459.86C1459.86 136.604 1459.86 253.344 1459.86 283.137C1459.86 312.93 1453.3 320.325 1423.98 320.226H1351.02C1323.29 320.095 1312.11 314.146 1311.5 283.137C1310.89 252.128 1311.5 136.604 1311.5 136.604" stroke="#EDEFE3" stroke-width="3"/>
<rect x="271.177" y="228.188" width="19.4566" height="19.4566" transform="rotate(-45 271.177 228.188)" fill="#D9D9D9"/>
<rect x="893.789" y="136.986" width="19.4566" height="19.4566" transform="rotate(-45 893.789 136.986)" fill="#D9D9D9"/>
<rect x="1262.25" y="136.986" width="19.4566" height="19.4566" transform="rotate(-45 1262.25 136.986)" fill="#D9D9D9"/>
<rect x="1297.51" y="136.986" width="19.4566" height="19.4566" transform="rotate(-45 1297.51 136.986)" fill="#D9D9D9"/>
<rect x="1190.5" y="320.608" width="19.4566" height="19.4566" transform="rotate(-45 1190.5 320.608)" fill="#D9D9D9"/>
<rect x="1628.28" y="320.608" width="19.4566" height="19.4566" transform="rotate(-45 1628.28 320.608)" fill="#D9D9D9"/>
<rect x="859.74" y="231.837" width="19.4566" height="19.4566" transform="rotate(-45 859.74 231.837)" fill="#D9D9D9"/>
<rect x="573.971" y="136.986" width="19.4566" height="19.4566" transform="rotate(-45 573.971 136.986)" fill="#D9D9D9"/>
<path d="M286.807 231.643V480.997H1035.36V417.427H1577.44" stroke="#3A3F43" stroke-width="3"/>
<path d="M1642.49 318.867V416.934" stroke="#EDEFE3" stroke-width="3"/>
<path d="M589.383 137.026V61.1354H179.378V8.40634H906.251M906.251 8.40634V137.026M906.251 8.40634L1683.88 2V413.484V418.905H1576.95" stroke="#3A3F43" stroke-width="3"/>
<rect y="172.948" width="109.401" height="109.401" rx="30" fill="#D9D9D9"/>
<path d="M99.5447 227.155C99.5447 230.475 99.1879 233.711 98.5107 236.827C94.0796 257.219 75.9271 272.492 54.2075 272.492C29.1684 272.492 8.8703 252.194 8.8703 227.155C8.8703 202.116 29.1684 181.818 54.2075 181.818C75.9271 181.818 94.0796 197.091 98.5107 217.483C99.1879 220.6 99.5447 223.836 99.5447 227.155Z" fill="#070707"/>
<circle cx="54.7003" cy="227.648" r="12.3199" fill="#D9D9D9"/>
</svg>
